PathFileType	4	(X/Y/Z)	 s10c0403.trc
DataRate	CameraRate	NumFrames	NumMarkers	Units	OrigDataRate	OrigDataStartFrame	OrigNumFrames
200	200	4	49	mm	200	1	2000
Frame#	Time	racr			lacr			c7			jug			rlel			rdr			llel			ldr			s2			lic			ric			lasi			rasi			rpsi			lpsi			rgt			lgt			rth1			rth2			rth3			rth4			rlfc			rmfc			rsh1			rsh2			rsh3			rsh4			rlmal			rmmal			rcal			rtoe			rmt5			lth1			lth2			lth4			lth3			llfc			lmfc			llmal			lcal			lmt5			lsh1			lsh2			lsh3			lsh4			ltoe			SBIKE			LBIKE			RBIKE			
		X1	Y1	Z1	X2	Y2	Z2	X3	Y3	Z3	X4	Y4	Z4	X5	Y5	Z5	X6	Y6	Z6	X7	Y7	Z7	X8	Y8	Z8	X9	Y9	Z9	X10	Y10	Z10	X11	Y11	Z11	X12	Y12	Z12	X13	Y13	Z13	X14	Y14	Z14	X15	Y15	Z15	X16	Y16	Z16	X17	Y17	Z17	X18	Y18	Z18	X19	Y19	Z19	X20	Y20	Z20	X21	Y21	Z21	X22	Y22	Z22	X23	Y23	Z23	X24	Y24	Z24	X25	Y25	Z25	X26	Y26	Z26	X27	Y27	Z27	X28	Y28	Z28	X29	Y29	Z29	X30	Y30	Z30	X31	Y31	Z31	X32	Y32	Z32	X33	Y33	Z33	X34	Y34	Z34	X35	Y35	Z35	X36	Y36	Z36	X37	Y37	Z37	X38	Y38	Z38	X39	Y39	Z39	X40	Y40	Z40	X41	Y41	Z41	X42	Y42	Z42	X43	Y43	Z43	X44	Y44	Z44	X45	Y45	Z45	X46	Y46	Z46	X47	Y47	Z47	X48	Y48	Z48	X49	Y49	Z49	
1	0.0050	382.029530	1332.475430	-19.519478	405.992943	1341.602108	-359.727155	375.139191	1383.220951	-191.537541	405.778504	1244.677138	-185.729383	471.529447	1084.313512	46.794774	625.005643	913.895891	10.652395	492.332769	1082.297121	-436.824536	646.463547	913.334635	-389.559078	-96.480508	1102.227378	-208.685471	77.415523	1098.712981	-355.086738	84.421115	1099.051239	-78.087740	95.064454	1011.916868	-331.479435	78.983504	1018.848507	-76.866251	-48.461348	1145.637222	-154.353138	-37.126209	1151.305536	-264.562199	-43.113032	1013.893273	-11.085659	-39.575388	983.889470	-404.463753	52.799995	919.519870	13.572820	140.898800	912.829258	3.273603	211.721324	864.517530	0.472409	151.565923	948.773074	-6.803912	320.536718	823.405648	-14.971374	319.363310	814.526894	-132.999466	268.425668	718.915761	3.669059	270.494517	631.388735	-12.592388	228.791698	556.109045	-24.561127	301.211188	628.582708	-36.562794	202.790309	459.568804	-47.495093	230.081102	479.463786	-125.663076	154.030808	434.782547	-98.150911	395.716054	423.386458	-80.097708	312.500289	393.346700	-22.411216	30.567370	869.824451	-424.208922	104.563343	825.304232	-413.130775	129.764472	850.006237	-403.484527	146.885566	747.130384	-408.444676	218.955984	662.404081	-391.684670	219.371738	654.910745	-272.165553	-27.735663	380.751731	-379.669338	-90.711279	378.372182	-337.907122	34.977715	252.912875	-397.459911	127.433529	580.988658	-418.305751	100.555752	498.914887	-402.605198	31.779165	441.470345	-397.620793	124.006087	485.429187	-375.729401	112.905670	243.981143	-342.636565	-204.279772	832.849231	-224.695859	-78.533522	81.721740	-423.684036	-102.281832	81.524508	-24.078613	
2	0.0100	381.998015	1332.486297	-19.524842	406.012603	1341.563181	-359.682557	375.118083	1383.209689	-191.502838	405.752625	1244.684795	-185.678001	471.571921	1084.340548	46.768214	625.044563	913.896000	10.652533	492.309683	1082.256613	-436.844650	646.456836	913.314094	-389.578101	-96.495047	1102.213600	-208.714763	77.432174	1098.730373	-355.078191	84.376112	1099.035894	-78.097066	94.241791	1010.978510	-331.632924	78.955051	1018.850700	-76.864713	-48.485997	1145.642518	-154.390358	-37.159793	1151.302691	-264.566659	-43.112105	1013.915664	-11.102346	-39.538583	983.889547	-404.447865	52.754074	919.556212	13.573053	140.886232	912.906012	3.314442	211.704607	864.628810	0.503308	151.545513	948.870376	-6.773025	320.560638	823.569277	-14.936326	319.412556	814.740094	-132.947427	268.389694	719.143565	3.689961	270.465570	631.525634	-12.570121	228.733719	556.330562	-24.531626	301.196689	628.742517	-36.534519	202.734945	459.772054	-47.499978	229.938980	479.658861	-125.605127	153.919737	434.888778	-98.099556	395.655438	423.589263	-80.112692	312.412446	393.539678	-22.418321	30.550480	869.805621	-424.203624	104.528436	825.252832	-413.116193	129.728913	849.949266	-403.467472	146.810825	747.069547	-408.386514	218.863352	662.291691	-391.588078	219.221081	654.807391	-272.105191	-27.729768	380.544547	-379.656752	-90.709377	378.155983	-337.908012	35.054381	252.765588	-397.467182	127.420088	580.819360	-418.245887	100.553995	498.754529	-402.539599	31.787300	441.257283	-397.595609	124.005255	485.322157	-375.681092	112.971496	243.853429	-342.648593	-204.273808	832.837128	-224.677131	-78.538862	81.738340	-423.711932	-102.300794	81.526146	-24.093607	
3	0.0150	381.983471	1332.497571	-19.516638	406.013661	1341.540312	-359.625155	375.109003	1383.193554	-191.453217	405.740988	1244.693904	-185.637790	471.602106	1084.367482	46.752970	625.075166	913.911722	10.674674	492.296801	1082.243856	-436.870123	646.463171	913.319266	-389.577345	-96.710522	1102.207257	-209.243617	77.453333	1098.744969	-355.055954	84.343574	1099.034455	-78.100195	94.292669	1011.023888	-331.619836	78.946788	1018.862737	-76.855075	-48.508820	1145.625325	-154.379424	-37.168229	1151.288739	-264.558820	-43.128412	1013.902302	-11.101441	-39.538583	983.889547	-404.447865	52.772403	919.609425	13.556247	140.882584	913.043690	3.355348	211.740704	864.737447	0.558919	151.529987	948.966207	-6.730320	320.637033	823.778716	-14.875841	319.468270	814.938695	-132.924384	268.398603	719.302644	3.724098	270.463493	631.676408	-12.519845	228.686852	556.555235	-24.502957	301.160348	628.929789	-36.471155	202.705377	459.976367	-47.495862	229.913184	479.868110	-125.590551	153.843428	435.067336	-98.088038	395.595658	423.735243	-80.122994	312.320604	393.760012	-22.416637	30.547074	869.770863	-424.191423	104.494329	825.201027	-413.077945	129.701450	849.877063	-403.451055	146.752564	746.997876	-408.317766	218.784843	662.176249	-391.475510	219.101490	654.698093	-272.038076	-27.701740	380.351256	-379.647133	-90.706166	377.932255	-337.900036	35.119413	252.614062	-397.467379	127.402787	580.657089	-418.196715	100.558849	498.566521	-402.469721	31.781068	441.051449	-397.557650	123.989695	485.176009	-375.583975	113.018862	243.689170	-342.622440	-204.279474	832.850371	-224.696918	-78.552944	81.702415	-423.689881	-102.288919	81.521704	-24.084049	
4	0.0200	382.015397	1332.514047	-19.477472	406.006796	1341.504091	-359.597026	375.271582	1383.346139	-191.564404	405.706125	1244.703197	-185.599996	471.716972	1084.292742	46.652480	625.106184	913.910719	10.697475	492.318791	1082.318474	-436.791513	646.464384	913.317713	-389.566888	-96.722350	1102.194556	-209.235287	77.457355	1098.750596	-355.040101	84.340102	1099.149927	-78.052879	95.232289	1012.164275	-331.662111	78.963617	1018.875116	-76.819498	-48.475737	1145.597248	-154.368992	-37.150697	1151.271236	-264.550939	-43.891348	1013.915735	-11.570752	-39.525275	983.868133	-404.443231	52.787235	919.753192	13.624842	140.291787	912.946879	3.095984	211.822607	864.900072	0.645774	151.626390	948.946391	-6.739123	320.743908	823.978083	-14.758640	319.549281	815.163133	-132.876191	268.472684	719.446762	3.775616	270.398809	631.701197	-13.019349	228.514813	556.905737	-24.412305	301.161421	629.135216	-36.329640	202.572650	460.295259	-47.409750	230.113464	480.299061	-125.348236	153.818022	435.282483	-98.080145	395.547600	423.878849	-80.100535	312.309460	393.949153	-22.406495	30.516773	869.707610	-424.155036	104.470040	825.133108	-413.028694	129.676522	850.001123	-403.583407	146.681341	746.921409	-408.260584	218.702982	662.078977	-391.384900	218.671287	654.629930	-271.772013	-27.675589	380.083383	-379.639711	-90.691683	377.701340	-337.915526	35.178656	252.456265	-397.453264	127.373137	580.486449	-418.134568	99.991898	497.305424	-402.951276	31.686130	441.028633	-397.396321	123.977229	485.051099	-375.527667	113.080124	243.541773	-342.632138	-204.270499	832.845931	-224.693152	-78.376685	83.219612	-422.732812	-102.265592	81.506530	-24.074415	
